<svg xmlns="http://www.w3.org/2000/svg" xmlns:xlink="http://www.w3.org/1999/xlink" width="512" height="512" viewBox="0 0 512 512"><defs><filter id="a" x="206" y="334" width="100" height="134" filterUnits="userSpaceOnUse"><feOffset dy="3" input="SourceAlpha"/><feGaussianBlur stdDeviation="3" result="b"/><feFlood flood-opacity="0.161"/><feComposite operator="in" in2="b"/><feComposite in="SourceGraphic"/></filter><filter id="c" x="7" y="67" width="498" height="313" filterUnits="userSpaceOnUse"><feOffset dy="3" input="SourceAlpha"/><feGaussianBlur stdDeviation="3" result="d"/><feFlood flood-opacity="0.161"/><feComposite operator="in" in2="d"/><feComposite in="SourceGraphic"/></filter><filter id="e" x="13" y="95" width="486" height="278" filterUnits="userSpaceOnUse"><feOffset dy="3" input="SourceAlpha"/><feGaussianBlur stdDeviation="3" result="f"/><feFlood flood-opacity="0.161"/><feComposite operator="in" in2="f"/><feComposite in="SourceGraphic"/></filter><filter id="g" x="60" y="139" width="394" height="190" filterUnits="userSpaceOnUse"><feOffset dy="3" input="SourceAlpha"/><feGaussianBlur stdDeviation="3" result="h"/><feFlood flood-opacity="0.161"/><feComposite operator="in" in2="h"/><feComposite in="SourceGraphic"/></filter><filter id="i" x="139" y="438" width="234" height="54" filterUnits="userSpaceOnUse"><feOffset dy="3" input="SourceAlpha"/><feGaussianBlur stdDeviation="3" result="j"/><feFlood flood-opacity="0.161"/><feComposite operator="in" in2="j"/><feComposite in="SourceGraphic"/></filter><filter id="k" x="12.242" y="95.099" width="487.515" height="278.101" filterUnits="userSpaceOnUse"><feOffset dy="3" input="SourceAlpha"/><feGaussianBlur stdDeviation="3" result="l"/><feFlood flood-opacity="0.161"/><feComposite operator="in" in2="l"/><feComposite in="SourceGraphic"/></filter><clipPath id="n"><rect width="512" height="512"/></clipPath></defs><g id="m" clip-path="url(#n)"><g transform="matrix(1, 0, 0, 1, 0, 0)" filter="url(#a)"><rect width="82" height="116" rx="12" transform="translate(215 340)" fill="#4f4f4f"/></g><g transform="matrix(1, 0, 0, 1, 0, 0)" filter="url(#c)"><rect width="480" height="295" rx="16" transform="translate(16 73)" fill="#4f4f4f"/></g><g transform="matrix(1, 0, 0, 1, 0, 0)" filter="url(#e)"><rect width="468" height="260" rx="12" transform="translate(22 101)" fill="#5c88ff"/></g><g transform="translate(252 84)" stroke="#707070" stroke-width="1"><ellipse cx="5" cy="4.5" rx="5" ry="4.5" stroke="none"/><ellipse cx="5" cy="4.5" rx="4.5" ry="4" fill="none"/></g><g transform="translate(69.365 144.73)"><g transform="matrix(1, 0, 0, 1, -69.37, -144.73)" filter="url(#g)"><rect width="376" height="172" rx="2" transform="translate(69 145)" fill="#fff"/></g><path d="M2,0H374a2,2,0,0,1,2,2V9a0,0,0,0,1,0,0H0A0,0,0,0,1,0,9V2A2,2,0,0,1,2,0Z" transform="translate(-0.365 0.27)" fill="#d8d8d8"/><circle cx="2" cy="2" r="2" transform="translate(366.635 3.27)" fill="#ea6c6c"/><ellipse cx="1.5" cy="2" rx="1.5" ry="2" transform="translate(360.635 3.27)" fill="#56c04f"/><circle cx="2" cy="2" r="2" transform="translate(353.635 3.27)" fill="#e5c264"/></g><g transform="matrix(1, 0, 0, 1, 0, 0)" filter="url(#i)"><rect width="216" height="36" rx="8" transform="translate(148 444)" fill="#4f4f4f"/></g><g transform="translate(232.553 181.447)"><path d="M63.973,127.531l11.329.012v27.649l11.932.012.022-27.809L98.367,138.17l.006,17.016,11.969.024.108-27.7,11.194,11.034V149.7L105.3,165.99l-1.569-.012-10.852-10.62L82.1,165.978H80.57L63.973,149.7V127.531" transform="translate(-63.973 -127.396)" fill="#8dc63f"/><line x2="28.902" y2="27.827" transform="translate(0 0.135)" fill="none"/><path d="M159.349,453.7l0-5.274-11.936-11.492v16.754Z" transform="translate(-134.887 -390.45)" fill="none"/><g transform="translate(0.066 0)"><path d="M75.743,128.3l-11.329-.012L75.743,139.2Z" transform="translate(-64.414 -128.157)" fill="#7fb539"/><path d="M242.447,155.209l-11.969-.024-.006-17.016L219.361,127.4l-.018,22.535,5.637,5.427,10.852,10.62,1.569.012L253.75,149.7V138.545l-11.194-11.034-.108,27.7" transform="translate(-196.078 -127.396)" fill="#7fb539"/></g><rect width="1.201" height="6.798" transform="translate(11.329 27.796)" fill="none"/></g><g transform="matrix(1, 0, 0, 1, 0, 0)" filter="url(#k)"><path d="M16.006,0h437.5a16.006,16.006,0,0,1,16.006,16.006c-453.4,244.374-2.583,2-453.509,244.094A16.006,16.006,0,0,1,0,244.094V16.006A16.006,16.006,0,0,1,16.006,0Z" transform="translate(21.24 101.1)" fill="#fff" opacity="0.09"/></g><text transform="translate(224 261)" fill="#7fb539" font-size="13" font-family="Roboto-Regular, Roboto" letter-spacing="0.3em"><tspan x="0" y="0">WEBSOM</tspan></text></g></svg>