<svg xmlns="http://www.w3.org/2000/svg" xmlns:xlink="http://www.w3.org/1999/xlink" width="512" height="512" viewBox="0 0 512 512"><defs><filter id="a" x="27" y="67" width="458" height="140" filterUnits="userSpaceOnUse"><feOffset dy="3" input="SourceAlpha"/><feGaussianBlur stdDeviation="3" result="b"/><feFlood flood-opacity="0.161"/><feComposite operator="in" in2="b"/><feComposite in="SourceGraphic"/></filter><filter id="c" x="27" y="189" width="458" height="140" filterUnits="userSpaceOnUse"><feOffset dy="3" input="SourceAlpha"/><feGaussianBlur stdDeviation="3" result="d"/><feFlood flood-opacity="0.161"/><feComposite operator="in" in2="d"/><feComposite in="SourceGraphic"/></filter><filter id="e" x="27" y="311" width="458" height="140" filterUnits="userSpaceOnUse"><feOffset dy="3" input="SourceAlpha"/><feGaussianBlur stdDeviation="3" result="f"/><feFlood flood-opacity="0.161"/><feComposite operator="in" in2="f"/><feComposite in="SourceGraphic"/></filter><clipPath id="h"><rect width="512" height="512"/></clipPath></defs><g id="g" clip-path="url(#h)"><g transform="matrix(1, 0, 0, 1, 0, 0)" filter="url(#a)"><path d="M12,0H428a12,12,0,0,1,12,12V122a0,0,0,0,1,0,0H0a0,0,0,0,1,0,0V12A12,12,0,0,1,12,0Z" transform="translate(36 73)" fill="#5c88ff"/></g><text transform="translate(256 153)" fill="#454545" font-size="48" font-family="Roboto-Regular, Roboto" letter-spacing="0.273em"><tspan x="-107.28" y="0">ITEM 1</tspan></text><g transform="matrix(1, 0, 0, 1, 0, 0)" filter="url(#c)"><rect width="440" height="122" transform="translate(36 195)" fill="#4e4e4e"/></g><text transform="translate(253 275)" fill="#e6e6e6" font-size="48" font-family="Roboto-Regular, Roboto" letter-spacing="0.273em"><tspan x="-107.28" y="0">ITEM 2</tspan></text><g transform="matrix(1, 0, 0, 1, 0, 0)" filter="url(#e)"><path d="M0,0H440a0,0,0,0,1,0,0V110a12,12,0,0,1-12,12H12A12,12,0,0,1,0,110V0A0,0,0,0,1,0,0Z" transform="translate(36 317)" fill="#4e4e4e"/></g><text transform="translate(253 397)" fill="#e6e6e6" font-size="48" font-family="Roboto-Regular, Roboto" letter-spacing="0.273em"><tspan x="-107.28" y="0">ITEM 3</tspan></text><rect width="440" height="5" transform="translate(36 193)" fill="#2c2c2c" opacity="0.17"/><rect width="440" height="5" transform="translate(36 315)" fill="#2c2c2c" opacity="0.17"/></g></svg>