<svg xmlns="http://www.w3.org/2000/svg" xmlns:xlink="http://www.w3.org/1999/xlink" width="512" height="512" viewBox="0 0 512 512"><defs><filter id="a" x="27" y="213" width="165" height="91" filterUnits="userSpaceOnUse"><feOffset dy="3" input="SourceAlpha"/><feGaussianBlur stdDeviation="3" result="b"/><feFlood flood-opacity="0.161"/><feComposite operator="in" in2="b"/><feComposite in="SourceGraphic"/></filter><filter id="c" x="174" y="213" width="164" height="91" filterUnits="userSpaceOnUse"><feOffset dy="3" input="SourceAlpha"/><feGaussianBlur stdDeviation="3" result="d"/><feFlood flood-opacity="0.161"/><feComposite operator="in" in2="d"/><feComposite in="SourceGraphic"/></filter><filter id="e" x="320" y="213" width="165" height="91" filterUnits="userSpaceOnUse"><feOffset dy="3" input="SourceAlpha"/><feGaussianBlur stdDeviation="3" result="f"/><feFlood flood-opacity="0.161"/><feComposite operator="in" in2="f"/><feComposite in="SourceGraphic"/></filter><clipPath id="h"><rect width="512" height="512"/></clipPath></defs><g id="g" clip-path="url(#h)"><g transform="matrix(1, 0, 0, 1, 0, 0)" filter="url(#a)"><path d="M12,0H61A12,12,0,0,1,73,12V147a0,0,0,0,1,0,0H0a0,0,0,0,1,0,0V12A12,12,0,0,1,12,0Z" transform="translate(36 292) rotate(-90)" fill="#5c88ff"/></g><text transform="translate(109.711 268.833)" fill="#454545" font-size="37" font-family="Roboto-Regular, Roboto" letter-spacing="0.273em"><tspan x="-12.068" y="0">A</tspan></text><g transform="matrix(1, 0, 0, 1, 0, 0)" filter="url(#c)"><rect width="73" height="146" transform="translate(183 292) rotate(-90)" fill="#4e4e4e"/></g><text transform="translate(256.565 268.833)" fill="#e6e6e6" font-size="37" font-family="Roboto-Regular, Roboto" letter-spacing="0.273em"><tspan x="-11.517" y="0">B</tspan></text><g transform="matrix(1, 0, 0, 1, 0, 0)" filter="url(#e)"><path d="M0,0H73a0,0,0,0,1,0,0V135a12,12,0,0,1-12,12H12A12,12,0,0,1,0,135V0A0,0,0,0,1,0,0Z" transform="translate(329 292) rotate(-90)" fill="#4e4e4e"/></g><text transform="translate(403.418 268.833)" fill="#e6e6e6" font-size="37" font-family="Roboto-Regular, Roboto" letter-spacing="0.273em"><tspan x="-12.041" y="0">C</tspan></text></g></svg>