<svg xmlns="http://www.w3.org/2000/svg" xmlns:xlink="http://www.w3.org/1999/xlink" width="512" height="512" viewBox="0 0 512 512"><defs><filter id="a" x="27" y="30" width="458" height="458" filterUnits="userSpaceOnUse"><feOffset dy="3" input="SourceAlpha"/><feGaussianBlur stdDeviation="3" result="b"/><feFlood flood-opacity="0.161"/><feComposite operator="in" in2="b"/><feComposite in="SourceGraphic"/></filter><linearGradient id="c" x2="0.971" y2="1" gradientUnits="objectBoundingBox"><stop offset="0" stop-color="#40d6d6"/><stop offset="1" stop-color="#173ebd"/></linearGradient><filter id="d" x="53" y="52" width="406" height="332" filterUnits="userSpaceOnUse"><feOffset dy="3" input="SourceAlpha"/><feGaussianBlur stdDeviation="3" result="e"/><feFlood flood-opacity="0.161"/><feComposite operator="in" in2="e"/><feComposite in="SourceGraphic"/></filter><linearGradient id="f" x1="0.5" x2="0.5" y2="1" gradientUnits="objectBoundingBox"><stop offset="0" stop-opacity="0"/><stop offset="1" stop-opacity="0.412"/></linearGradient><filter id="g" x="53" y="84" width="406" height="300" filterUnits="userSpaceOnUse"><feOffset dy="3" input="SourceAlpha"/><feGaussianBlur stdDeviation="3" result="h"/><feFlood flood-opacity="0.161"/><feComposite operator="in" in2="h"/><feComposite in="SourceGraphic"/></filter><clipPath id="j"><rect width="512" height="512"/></clipPath></defs><g id="i" clip-path="url(#j)"><g transform="matrix(1, 0, 0, 1, 0, 0)" filter="url(#a)"><rect width="440" height="440" rx="12" transform="translate(36 476) rotate(-90)" fill="#4e4e4e"/></g><g transform="matrix(1, 0, 0, 1, 0, 0)" filter="url(#d)"><rect width="388" height="314" rx="12" transform="translate(62 58)" fill="url(#c)"/></g><g transform="matrix(1, 0, 0, 1, 0, 0)" filter="url(#g)"><path d="M0,0H388a0,0,0,0,1,0,0V270a12,12,0,0,1-12,12H12A12,12,0,0,1,0,270V0A0,0,0,0,1,0,0Z" transform="translate(62 90)" fill="url(#f)"/></g><text transform="translate(162 340.833)" fill="#fff" font-size="48" font-family="Roboto-Light, Roboto" font-weight="300" letter-spacing="0.273em"><tspan x="-81.179" y="0">CARD</tspan></text><text transform="translate(81 437.833)" fill="#fff" font-size="36" font-family="Roboto-Regular, Roboto"><tspan x="0" y="0">Lorem Ipsum ...</tspan></text></g></svg>