<svg xmlns="http://www.w3.org/2000/svg" xmlns:xlink="http://www.w3.org/1999/xlink" width="512" height="512" viewBox="0 0 512 512"><defs><filter id="a" x="27" y="185" width="458" height="140" filterUnits="userSpaceOnUse"><feOffset dy="3" input="SourceAlpha"/><feGaussianBlur stdDeviation="3" result="b"/><feFlood flood-opacity="0.161"/><feComposite operator="in" in2="b"/><feComposite in="SourceGraphic"/></filter><filter id="c" x="27" y="73" width="458" height="140" filterUnits="userSpaceOnUse"><feOffset dy="3" input="SourceAlpha"/><feGaussianBlur stdDeviation="3" result="d"/><feFlood flood-opacity="0.161"/><feComposite operator="in" in2="d"/><feComposite in="SourceGraphic"/></filter><filter id="e" x="27" y="306" width="458" height="140" filterUnits="userSpaceOnUse"><feOffset dy="3" input="SourceAlpha"/><feGaussianBlur stdDeviation="3" result="f"/><feFlood flood-opacity="0.161"/><feComposite operator="in" in2="f"/><feComposite in="SourceGraphic"/></filter><clipPath id="h"><rect width="512" height="512"/></clipPath></defs><g id="g" clip-path="url(#h)"><g transform="matrix(1, 0, 0, 1, 0, 0)" filter="url(#a)"><rect width="440" height="122" transform="translate(36 191)" fill="#454545"/></g><text transform="translate(149 266)" fill="#5c88ff" font-size="36" font-family="Roboto-Regular, Roboto" letter-spacing="0.273em"><tspan x="-80.46" y="0">ITEM 1</tspan></text><g transform="matrix(1, 0, 0, 1, 0, 0)" filter="url(#c)"><rect width="440" height="122" rx="12" transform="translate(36 79)" fill="#565656"/></g><text transform="translate(213 153)" fill="#e6e6e6" font-size="36" font-family="Roboto-Regular, Roboto" letter-spacing="0.273em"><tspan x="-143.875" y="0">DROP-DOWN</tspan></text><g transform="translate(81 -110)"><line x2="20" y2="20" transform="translate(318.5 240.5)" fill="none" stroke="#d8d8d8" stroke-linecap="round" stroke-width="4"/><line x1="20" y2="20" transform="translate(338.5 240.5)" fill="none" stroke="#d8d8d8" stroke-linecap="round" stroke-width="4"/></g><g transform="matrix(1, 0, 0, 1, 0, 0)" filter="url(#e)"><path d="M0,0H440a0,0,0,0,1,0,0V110a12,12,0,0,1-12,12H12A12,12,0,0,1,0,110V0A0,0,0,0,1,0,0Z" transform="translate(36 312)" fill="#454545"/></g><text transform="translate(149 387)" fill="#5c88ff" font-size="36" font-family="Roboto-Regular, Roboto" letter-spacing="0.273em"><tspan x="-80.46" y="0">ITEM 2</tspan></text></g></svg>