<svg xmlns="http://www.w3.org/2000/svg" xmlns:xlink="http://www.w3.org/1999/xlink" width="512" height="512" viewBox="0 0 512 512"><defs><clipPath id="b"><rect width="512" height="512"/></clipPath></defs><g id="a" clip-path="url(#b)"><rect width="429" height="121" transform="translate(42 338)" fill="#454545"/><text transform="translate(390 420)" fill="#5c88ff" font-size="54" font-family="Roboto-Regular, Roboto" letter-spacing="0.273em"><tspan x="-36.06" y="0">...</tspan></text><rect width="429" height="264" transform="translate(42 54)" fill="#454545"/><path d="M-12517.194-136.713h0l-2.254-.019-15.592-15.453-15.481,15.453h-2.193l-23.847-23.685v-32.267h.095l16.277.019v15.857l-.095-.092v24.472l17.142.019.032-40.47.095.093v-.093l15.961,15.68.01,24.761,17.1.035.155-40.309.094.094v-.094l16.082,16.059v16.236l-23.486,23.7Z" transform="translate(12652.096 564.153)" fill="#5c88ff"/></g></svg>