<svg xmlns="http://www.w3.org/2000/svg" xmlns:xlink="http://www.w3.org/1999/xlink" width="584" height="584" viewBox="0 0 584 584"><defs><clipPath id="a"><rect width="447" height="140" fill="none"/></clipPath><filter id="b" x="58" y="419" width="38" height="140" filterUnits="userSpaceOnUse"><feOffset dy="3" input="SourceAlpha"/><feGaussianBlur stdDeviation="3" result="c"/><feFlood flood-opacity="0.161"/><feComposite operator="in" in2="c"/><feComposite in="SourceGraphic"/></filter><filter id="d" x="96" y="419" width="38" height="140" filterUnits="userSpaceOnUse"><feOffset dy="3" input="SourceAlpha"/><feGaussianBlur stdDeviation="3" result="e"/><feFlood flood-opacity="0.161"/><feComposite operator="in" in2="e"/><feComposite in="SourceGraphic"/></filter><filter id="f" x="134" y="419" width="38" height="140" filterUnits="userSpaceOnUse"><feOffset dy="3" input="SourceAlpha"/><feGaussianBlur stdDeviation="3" result="g"/><feFlood flood-opacity="0.161"/><feComposite operator="in" in2="g"/><feComposite in="SourceGraphic"/></filter><filter id="h" x="172" y="419" width="38" height="140" filterUnits="userSpaceOnUse"><feOffset dy="3" input="SourceAlpha"/><feGaussianBlur stdDeviation="3" result="i"/><feFlood flood-opacity="0.161"/><feComposite operator="in" in2="i"/><feComposite in="SourceGraphic"/></filter><filter id="j" x="210" y="419" width="38" height="140" filterUnits="userSpaceOnUse"><feOffset dy="3" input="SourceAlpha"/><feGaussianBlur stdDeviation="3" result="k"/><feFlood flood-opacity="0.161"/><feComposite operator="in" in2="k"/><feComposite in="SourceGraphic"/></filter><filter id="l" x="248" y="419" width="38" height="140" filterUnits="userSpaceOnUse"><feOffset dy="3" input="SourceAlpha"/><feGaussianBlur stdDeviation="3" result="m"/><feFlood flood-opacity="0.161"/><feComposite operator="in" in2="m"/><feComposite in="SourceGraphic"/></filter><filter id="n" x="286" y="419" width="38" height="140" filterUnits="userSpaceOnUse"><feOffset dy="3" input="SourceAlpha"/><feGaussianBlur stdDeviation="3" result="o"/><feFlood flood-opacity="0.161"/><feComposite operator="in" in2="o"/><feComposite in="SourceGraphic"/></filter><filter id="p" x="324" y="419" width="38" height="140" filterUnits="userSpaceOnUse"><feOffset dy="3" input="SourceAlpha"/><feGaussianBlur stdDeviation="3" result="q"/><feFlood flood-opacity="0.161"/><feComposite operator="in" in2="q"/><feComposite in="SourceGraphic"/></filter><filter id="r" x="362" y="419" width="38" height="140" filterUnits="userSpaceOnUse"><feOffset dy="3" input="SourceAlpha"/><feGaussianBlur stdDeviation="3" result="s"/><feFlood flood-opacity="0.161"/><feComposite operator="in" in2="s"/><feComposite in="SourceGraphic"/></filter><filter id="t" x="400" y="419" width="38" height="140" filterUnits="userSpaceOnUse"><feOffset dy="3" input="SourceAlpha"/><feGaussianBlur stdDeviation="3" result="u"/><feFlood flood-opacity="0.161"/><feComposite operator="in" in2="u"/><feComposite in="SourceGraphic"/></filter><filter id="v" x="438" y="419" width="38" height="140" filterUnits="userSpaceOnUse"><feOffset dy="3" input="SourceAlpha"/><feGaussianBlur stdDeviation="3" result="w"/><feFlood flood-opacity="0.161"/><feComposite operator="in" in2="w"/><feComposite in="SourceGraphic"/></filter><filter id="x" x="476" y="419" width="38" height="140" filterUnits="userSpaceOnUse"><feOffset dy="3" input="SourceAlpha"/><feGaussianBlur stdDeviation="3" result="y"/><feFlood flood-opacity="0.161"/><feComposite operator="in" in2="y"/><feComposite in="SourceGraphic"/></filter><clipPath id="z"><rect width="450" height="149" fill="none"/></clipPath><filter id="aa" x="58" y="286" width="76" height="138" filterUnits="userSpaceOnUse"><feOffset dy="3" input="SourceAlpha"/><feGaussianBlur stdDeviation="3" result="ab"/><feFlood flood-opacity="0.161"/><feComposite operator="in" in2="ab"/><feComposite in="SourceGraphic"/></filter><filter id="ac" x="134" y="286" width="76" height="138" filterUnits="userSpaceOnUse"><feOffset dy="3" input="SourceAlpha"/><feGaussianBlur stdDeviation="3" result="ad"/><feFlood flood-opacity="0.161"/><feComposite operator="in" in2="ad"/><feComposite in="SourceGraphic"/></filter><filter id="ae" x="210" y="286" width="76" height="138" filterUnits="userSpaceOnUse"><feOffset dy="3" input="SourceAlpha"/><feGaussianBlur stdDeviation="3" result="af"/><feFlood flood-opacity="0.161"/><feComposite operator="in" in2="af"/><feComposite in="SourceGraphic"/></filter><filter id="ag" x="286" y="286" width="76" height="138" filterUnits="userSpaceOnUse"><feOffset dy="3" input="SourceAlpha"/><feGaussianBlur stdDeviation="3" result="ah"/><feFlood flood-opacity="0.161"/><feComposite operator="in" in2="ah"/><feComposite in="SourceGraphic"/></filter><filter id="ai" x="362" y="286" width="76" height="138" filterUnits="userSpaceOnUse"><feOffset dy="3" input="SourceAlpha"/><feGaussianBlur stdDeviation="3" result="aj"/><feFlood flood-opacity="0.161"/><feComposite operator="in" in2="aj"/><feComposite in="SourceGraphic"/></filter><filter id="ak" x="438" y="286" width="76" height="138" filterUnits="userSpaceOnUse"><feOffset dy="3" input="SourceAlpha"/><feGaussianBlur stdDeviation="3" result="al"/><feFlood flood-opacity="0.161"/><feComposite operator="in" in2="al"/><feComposite in="SourceGraphic"/></filter><filter id="am" x="58" y="152" width="152" height="138" filterUnits="userSpaceOnUse"><feOffset dy="3" input="SourceAlpha"/><feGaussianBlur stdDeviation="3" result="an"/><feFlood flood-opacity="0.161"/><feComposite operator="in" in2="an"/><feComposite in="SourceGraphic"/></filter><filter id="ao" x="210" y="152" width="152" height="138" filterUnits="userSpaceOnUse"><feOffset dy="3" input="SourceAlpha"/><feGaussianBlur stdDeviation="3" result="ap"/><feFlood flood-opacity="0.161"/><feComposite operator="in" in2="ap"/><feComposite in="SourceGraphic"/></filter><filter id="aq" x="362" y="152" width="152" height="138" filterUnits="userSpaceOnUse"><feOffset dy="3" input="SourceAlpha"/><feGaussianBlur stdDeviation="3" result="ar"/><feFlood flood-opacity="0.161"/><feComposite operator="in" in2="ar"/><feComposite in="SourceGraphic"/></filter><filter id="as" x="58" y="19" width="229" height="138" filterUnits="userSpaceOnUse"><feOffset dy="3" input="SourceAlpha"/><feGaussianBlur stdDeviation="3" result="at"/><feFlood flood-opacity="0.161"/><feComposite operator="in" in2="at"/><feComposite in="SourceGraphic"/></filter><filter id="au" x="287" y="19" width="227" height="138" filterUnits="userSpaceOnUse"><feOffset dy="3" input="SourceAlpha"/><feGaussianBlur stdDeviation="3" result="av"/><feFlood flood-opacity="0.161"/><feComposite operator="in" in2="av"/><feComposite in="SourceGraphic"/></filter><clipPath id="ax"><rect width="584" height="584"/></clipPath></defs><g id="aw" clip-path="url(#ax)"><g transform="translate(67 419)" clip-path="url(#a)"><g transform="translate(-132 -189)"><g transform="matrix(1, 0, 0, 1, 65, -230)" filter="url(#b)"><rect width="20" height="122" transform="translate(67 425)" fill="#454545"/></g></g><g transform="translate(-94 -189)"><g transform="matrix(1, 0, 0, 1, 27, -230)" filter="url(#d)"><rect width="20" height="122" transform="translate(105 425)" fill="#454545"/></g></g><g transform="translate(-56 -189)"><g transform="matrix(1, 0, 0, 1, -11, -230)" filter="url(#f)"><rect width="20" height="122" transform="translate(143 425)" fill="#454545"/></g></g><g transform="translate(-18 -189)"><g transform="matrix(1, 0, 0, 1, -49, -230)" filter="url(#h)"><rect width="20" height="122" transform="translate(181 425)" fill="#454545"/></g></g><g transform="translate(20 -189)"><g transform="matrix(1, 0, 0, 1, -87, -230)" filter="url(#j)"><rect width="20" height="122" transform="translate(219 425)" fill="#454545"/></g></g><g transform="translate(58 -189)"><g transform="matrix(1, 0, 0, 1, -125, -230)" filter="url(#l)"><rect width="20" height="122" transform="translate(257 425)" fill="#454545"/></g></g><g transform="translate(96 -189)"><g transform="matrix(1, 0, 0, 1, -163, -230)" filter="url(#n)"><rect width="20" height="122" transform="translate(295 425)" fill="#454545"/></g></g><g transform="translate(134 -189)"><g transform="matrix(1, 0, 0, 1, -201, -230)" filter="url(#p)"><rect width="20" height="122" transform="translate(333 425)" fill="#454545"/></g></g><g transform="translate(172 -189)"><g transform="matrix(1, 0, 0, 1, -239, -230)" filter="url(#r)"><rect width="20" height="122" transform="translate(371 425)" fill="#454545"/></g></g><g transform="translate(210 -189)"><g transform="matrix(1, 0, 0, 1, -277, -230)" filter="url(#t)"><rect width="20" height="122" transform="translate(409 425)" fill="#454545"/></g></g><g transform="translate(248 -189)"><g transform="matrix(1, 0, 0, 1, -315, -230)" filter="url(#v)"><rect width="20" height="122" transform="translate(447 425)" fill="#454545"/></g></g><g transform="translate(286 -189)"><g transform="matrix(1, 0, 0, 1, -353, -230)" filter="url(#x)"><rect width="20" height="122" transform="translate(485 425)" fill="#454545"/></g></g></g><g transform="translate(67 275)" opacity="0.94" clip-path="url(#z)"><g transform="translate(-132 -189)"><g transform="matrix(1, 0, 0, 1, 65, -86)" filter="url(#aa)"><rect width="58" height="120" transform="translate(67 292)" fill="#454545"/></g></g><g transform="translate(-56 -189)"><g transform="matrix(1, 0, 0, 1, -11, -86)" filter="url(#ac)"><rect width="58" height="120" transform="translate(143 292)" fill="#454545"/></g></g><g transform="translate(20 -189)"><g transform="matrix(1, 0, 0, 1, -87, -86)" filter="url(#ae)"><rect width="58" height="120" transform="translate(219 292)" fill="#454545"/></g></g><g transform="translate(96 -189)"><g transform="matrix(1, 0, 0, 1, -163, -86)" filter="url(#ag)"><rect width="58" height="120" transform="translate(295 292)" fill="#454545"/></g></g><g transform="translate(172 -189)"><g transform="matrix(1, 0, 0, 1, -239, -86)" filter="url(#ai)"><rect width="58" height="120" transform="translate(371 292)" fill="#454545"/></g></g><g transform="translate(248 -189)"><g transform="matrix(1, 0, 0, 1, -315, -86)" filter="url(#ak)"><rect width="58" height="120" transform="translate(447 292)" fill="#454545"/></g></g></g><g transform="matrix(1, 0, 0, 1, 0, 0)" filter="url(#am)"><rect width="134" height="120" transform="translate(67 158)" fill="#454545" opacity="0.86"/></g><g transform="matrix(1, 0, 0, 1, 0, 0)" filter="url(#ao)"><rect width="134" height="120" transform="translate(219 158)" fill="#454545" opacity="0.86"/></g><g transform="matrix(1, 0, 0, 1, 0, 0)" filter="url(#aq)"><rect width="134" height="120" transform="translate(371 158)" fill="#454545" opacity="0.86"/></g><g transform="matrix(1, 0, 0, 1, 0, 0)" filter="url(#as)"><rect width="211" height="120" transform="translate(67 25)" fill="#454545" opacity="0.71"/></g><g transform="matrix(1, 0, 0, 1, 0, 0)" filter="url(#au)"><rect width="209" height="120" transform="translate(296 25)" fill="#454545" opacity="0.71"/></g></g></svg>