<svg xmlns="http://www.w3.org/2000/svg" xmlns:xlink="http://www.w3.org/1999/xlink" width="512" height="512" viewBox="0 0 512 512"><defs><filter id="a" x="27" y="41" width="458" height="436" filterUnits="userSpaceOnUse"><feOffset dy="3" input="SourceAlpha"/><feGaussianBlur stdDeviation="3" result="b"/><feFlood flood-opacity="0.161"/><feComposite operator="in" in2="b"/><feComposite in="SourceGraphic"/></filter><filter id="c" x="27" y="41" width="458" height="119" filterUnits="userSpaceOnUse"><feOffset dy="3" input="SourceAlpha"/><feGaussianBlur stdDeviation="3" result="d"/><feFlood flood-opacity="0.161"/><feComposite operator="in" in2="d"/><feComposite in="SourceGraphic"/></filter><linearGradient id="e" x2="0.971" y2="1" gradientUnits="objectBoundingBox"><stop offset="0" stop-color="#5940d6"/><stop offset="1" stop-color="#a717bd"/></linearGradient><filter id="f" x="95" y="201" width="103" height="104" filterUnits="userSpaceOnUse"><feOffset dy="3" input="SourceAlpha"/><feGaussianBlur stdDeviation="3" result="g"/><feFlood flood-opacity="0.161"/><feComposite operator="in" in2="g"/><feComposite in="SourceGraphic"/></filter><linearGradient id="h" x2="0.971" y2="1" gradientUnits="objectBoundingBox"><stop offset="0" stop-color="#40d6d6"/><stop offset="1" stop-color="#173ebd"/></linearGradient><filter id="i" x="205" y="201" width="103" height="104" filterUnits="userSpaceOnUse"><feOffset dy="3" input="SourceAlpha"/><feGaussianBlur stdDeviation="3" result="j"/><feFlood flood-opacity="0.161"/><feComposite operator="in" in2="j"/><feComposite in="SourceGraphic"/></filter><filter id="l" x="315" y="201" width="103" height="104" filterUnits="userSpaceOnUse"><feOffset dy="3" input="SourceAlpha"/><feGaussianBlur stdDeviation="3" result="m"/><feFlood flood-opacity="0.161"/><feComposite operator="in" in2="m"/><feComposite in="SourceGraphic"/></filter><linearGradient id="n" x2="0.971" y2="1" gradientUnits="objectBoundingBox"><stop offset="0" stop-color="#c7d640"/><stop offset="1" stop-color="#3ebd17"/></linearGradient><filter id="o" x="95" y="312" width="103" height="104" filterUnits="userSpaceOnUse"><feOffset dy="3" input="SourceAlpha"/><feGaussianBlur stdDeviation="3" result="p"/><feFlood flood-opacity="0.161"/><feComposite operator="in" in2="p"/><feComposite in="SourceGraphic"/></filter><filter id="r" x="205" y="312" width="103" height="104" filterUnits="userSpaceOnUse"><feOffset dy="3" input="SourceAlpha"/><feGaussianBlur stdDeviation="3" result="s"/><feFlood flood-opacity="0.161"/><feComposite operator="in" in2="s"/><feComposite in="SourceGraphic"/></filter><linearGradient id="t" x2="0.971" y2="1" gradientUnits="objectBoundingBox"><stop offset="0" stop-color="#d6d240"/><stop offset="1" stop-color="#bd1774"/></linearGradient><filter id="u" x="315" y="312" width="103" height="104" filterUnits="userSpaceOnUse"><feOffset dy="3" input="SourceAlpha"/><feGaussianBlur stdDeviation="3" result="v"/><feFlood flood-opacity="0.161"/><feComposite operator="in" in2="v"/><feComposite in="SourceGraphic"/></filter><clipPath id="x"><rect width="512" height="512"/></clipPath></defs><g id="w" clip-path="url(#x)"><g transform="matrix(1, 0, 0, 1, 0, 0)" filter="url(#a)"><rect width="440" height="418" rx="12" transform="translate(36 47)" fill="#444"/></g><g transform="matrix(1, 0, 0, 1, 0, 0)" filter="url(#c)"><path d="M12,0H428a12,12,0,0,1,12,12v89a0,0,0,0,1,0,0H0a0,0,0,0,1,0,0V12A12,12,0,0,1,12,0Z" transform="translate(36 47)" fill="#4e4e4e"/></g><text transform="translate(256 119)" fill="#e6e6e6" font-size="53" font-family="Roboto-Regular, Roboto" letter-spacing="0.273em"><tspan x="-109.007" y="0">MEDIA</tspan></text><g transform="matrix(1, 0, 0, 1, 0, 0)" filter="url(#f)"><rect width="85" height="86" rx="12" transform="translate(104 207)" fill="url(#e)"/></g><g transform="matrix(1, 0, 0, 1, 0, 0)" filter="url(#i)"><rect width="85" height="86" rx="12" transform="translate(214 207)" fill="url(#h)"/></g><g transform="matrix(1, 0, 0, 1, 0, 0)" filter="url(#l)"><rect width="85" height="86" rx="12" transform="translate(324 207)" fill="url(#e)"/></g><g transform="matrix(1, 0, 0, 1, 0, 0)" filter="url(#o)"><rect width="85" height="86" rx="12" transform="translate(104 318)" fill="url(#n)"/></g><g transform="matrix(1, 0, 0, 1, 0, 0)" filter="url(#r)"><rect width="85" height="86" rx="12" transform="translate(214 318)" fill="url(#e)"/></g><g transform="matrix(1, 0, 0, 1, 0, 0)" filter="url(#u)"><rect width="85" height="86" rx="12" transform="translate(324 318)" fill="url(#t)"/></g></g></svg>