<svg xmlns="http://www.w3.org/2000/svg" xmlns:xlink="http://www.w3.org/1999/xlink" width="512" height="512" viewBox="0 0 512 512"><defs><filter id="a" x="27" y="189" width="458" height="140" filterUnits="userSpaceOnUse"><feOffset dy="3" input="SourceAlpha"/><feGaussianBlur stdDeviation="3" result="b"/><feFlood flood-opacity="0.161"/><feComposite operator="in" in2="b"/><feComposite in="SourceGraphic"/></filter><clipPath id="d"><rect width="512" height="512"/></clipPath></defs><g id="c" clip-path="url(#d)"><g transform="matrix(1, 0, 0, 1, 0, 0)" filter="url(#a)"><rect width="440" height="122" rx="12" transform="translate(36 195)" fill="#4e4e4e"/></g><text transform="translate(160 277)" fill="#e6e6e6" font-size="53" font-family="Roboto-Regular, Roboto" letter-spacing="0.273em"><tspan x="-72.879" y="0">FILE</tspan></text><g transform="translate(1)"><path d="M5,0H34A12,12,0,0,1,46,12v0a0,0,0,0,1,0,0H0a0,0,0,0,1,0,0V5A5,5,0,0,1,5,0Z" transform="translate(367 225)" fill="#d4d4d4"/><path d="M0,0,68,1a4,4,0,0,1,4,4V38A13,13,0,0,1,59,51H5a5,5,0,0,1-5-5Z" transform="translate(367 236)" fill="#5c88ff"/><path d="M0,0C70.209,8,72,9,72,9V38A13,13,0,0,1,59,51H5a5,5,0,0,1-5-5Z" transform="translate(367 236)" fill="#f7f7f7"/></g></g></svg>