<svg xmlns="http://www.w3.org/2000/svg" xmlns:xlink="http://www.w3.org/1999/xlink" width="512" height="512" viewBox="0 0 512 512"><defs><filter id="a" x="27" y="115" width="458" height="140" filterUnits="userSpaceOnUse"><feOffset dy="3" input="SourceAlpha"/><feGaussianBlur stdDeviation="3" result="b"/><feFlood flood-opacity="0.161"/><feComposite operator="in" in2="b"/><feComposite in="SourceGraphic"/></filter><filter id="c" x="27" y="263" width="458" height="140" filterUnits="userSpaceOnUse"><feOffset dy="3" input="SourceAlpha"/><feGaussianBlur stdDeviation="3" result="d"/><feFlood flood-opacity="0.161"/><feComposite operator="in" in2="d"/><feComposite in="SourceGraphic"/></filter><clipPath id="f"><rect width="512" height="512"/></clipPath></defs><g id="e" clip-path="url(#f)"><g transform="matrix(1, 0, 0, 1, 0, 0)" filter="url(#a)"><path d="M12,0H428a12,12,0,0,1,12,12V122a0,0,0,0,1,0,0H0a0,0,0,0,1,0,0V12A12,12,0,0,1,12,0Z" transform="translate(36 121)" fill="#565656"/></g><text transform="translate(157 196)" fill="#e6e6e6" font-size="36" font-family="Roboto-Regular, Roboto" letter-spacing="0.273em"><tspan x="-84.96" y="0">ENTITY</tspan></text><path d="M0,0H440a0,0,0,0,1,0,0V0a10,10,0,0,1-10,10H10A10,10,0,0,1,0,0V0A0,0,0,0,1,0,0Z" transform="translate(36 243)" fill="#5c88ff"/><rect width="4" height="42" transform="translate(257 161)" fill="#5c88ff"/><g transform="matrix(1, 0, 0, 1, 0, 0)" filter="url(#c)"><rect width="440" height="122" rx="12" transform="translate(36 269)" fill="#454545"/></g><text transform="translate(178 350)" fill="#e6e6e6" font-size="36" font-family="Roboto-Regular, Roboto" letter-spacing="0.273em"><tspan x="-24.04" y="0">...</tspan></text><circle cx="15" cy="15" r="15" transform="translate(84 301)" fill="#5c88ff"/><path d="M26,0h2A26,26,0,0,1,54,26v0a0,0,0,0,1,0,0H0a0,0,0,0,1,0,0v0A26,26,0,0,1,26,0Z" transform="translate(72 334)" fill="#5c88ff"/><g transform="translate(81.5 -68)"><line x2="20" y2="20" transform="translate(318.5 240.5)" fill="none" stroke="#d8d8d8" stroke-linecap="round" stroke-width="4"/><line x1="20" y2="20" transform="translate(338.5 240.5)" fill="none" stroke="#d8d8d8" stroke-linecap="round" stroke-width="4"/></g></g></svg>