<svg xmlns="http://www.w3.org/2000/svg" xmlns:xlink="http://www.w3.org/1999/xlink" width="512" height="512" viewBox="0 0 512 512"><defs><filter id="a" x="27" y="184" width="458" height="140" filterUnits="userSpaceOnUse"><feOffset dy="3" input="SourceAlpha"/><feGaussianBlur stdDeviation="3" result="b"/><feFlood flood-opacity="0.161"/><feComposite operator="in" in2="b"/><feComposite in="SourceGraphic"/></filter><clipPath id="d"><rect width="512" height="512"/></clipPath></defs><g id="c" clip-path="url(#d)"><g transform="matrix(1, 0, 0, 1, 0, 0)" filter="url(#a)"><path d="M12,0H428a12,12,0,0,1,12,12V122a0,0,0,0,1,0,0H0a0,0,0,0,1,0,0V12A12,12,0,0,1,12,0Z" transform="translate(36 190)" fill="#565656"/></g><text transform="translate(118 265)" fill="#e6e6e6" font-size="36" font-family="Roboto-Regular, Roboto" letter-spacing="0.273em"><tspan x="-57.738" y="0">TEXT</tspan></text><path d="M0,0H440a0,0,0,0,1,0,0V0a10,10,0,0,1-10,10H10A10,10,0,0,1,0,0V0A0,0,0,0,1,0,0Z" transform="translate(36 312)" fill="#5c88ff"/><rect width="4" height="42" transform="translate(187 230)" fill="#5c88ff"/></g></svg>