<svg xmlns="http://www.w3.org/2000/svg" xmlns:xlink="http://www.w3.org/1999/xlink" width="512" height="512" viewBox="0 0 512 512"><defs><filter id="a" x="27" y="82" width="458" height="354" filterUnits="userSpaceOnUse"><feOffset dy="3" input="SourceAlpha"/><feGaussianBlur stdDeviation="3" result="b"/><feFlood flood-opacity="0.161"/><feComposite operator="in" in2="b"/><feComposite in="SourceGraphic"/></filter><clipPath id="d"><rect width="512" height="512"/></clipPath></defs><g id="c" clip-path="url(#d)"><g transform="matrix(1, 0, 0, 1, 0, 0)" filter="url(#a)"><rect width="440" height="336" rx="12" transform="translate(36 88)" fill="#444"/></g><g transform="translate(76 127)" fill="none" stroke="#5c88ff" stroke-width="8" opacity="0.45"><circle cx="34.5" cy="34.5" r="34.5" stroke="none"/><circle cx="34.5" cy="34.5" r="30.5" fill="none"/></g><text transform="translate(309 180)" fill="#e6e6e6" font-size="48" font-family="Roboto-Regular, Roboto" letter-spacing="0.273em"><tspan x="-127.929" y="0">RADIO 1</tspan></text><g transform="translate(76 222)" fill="none" stroke="#5c88ff" stroke-width="8"><circle cx="34.5" cy="34.5" r="34.5" stroke="none"/><circle cx="34.5" cy="34.5" r="30.5" fill="none"/></g><text transform="translate(309 275)" fill="#e6e6e6" font-size="48" font-family="Roboto-Regular, Roboto" letter-spacing="0.273em"><tspan x="-127.929" y="0">RADIO 2</tspan></text><g transform="translate(76 317)" fill="none" stroke="#5c88ff" stroke-width="8" opacity="0.45"><circle cx="34.5" cy="34.5" r="34.5" stroke="none"/><circle cx="34.5" cy="34.5" r="30.5" fill="none"/></g><text transform="translate(309 370)" fill="#e6e6e6" font-size="48" font-family="Roboto-Regular, Roboto" letter-spacing="0.273em"><tspan x="-127.929" y="0">RADIO 3</tspan></text><circle cx="17.5" cy="17.5" r="17.5" transform="translate(93 239)" fill="#5c88ff"/></g></svg>