<svg xmlns="http://www.w3.org/2000/svg" xmlns:xlink="http://www.w3.org/1999/xlink" width="512" height="512" viewBox="0 0 512 512"><defs><filter id="a" x="27.325" y="171.131" width="457.675" height="308.786" filterUnits="userSpaceOnUse"><feOffset dy="3" input="SourceAlpha"/><feGaussianBlur stdDeviation="3" result="b"/><feFlood flood-opacity="0.161"/><feComposite operator="in" in2="b"/><feComposite in="SourceGraphic"/></filter><filter id="c" x="27" y="39" width="458" height="140" filterUnits="userSpaceOnUse"><feOffset dy="3" input="SourceAlpha"/><feGaussianBlur stdDeviation="3" result="d"/><feFlood flood-opacity="0.161"/><feComposite operator="in" in2="d"/><feComposite in="SourceGraphic"/></filter><clipPath id="e"><rect width="394" height="221" fill="none"/></clipPath><clipPath id="g"><rect width="512" height="512"/></clipPath></defs><g id="f" clip-path="url(#g)"><g transform="matrix(1, 0, 0, 1, 0, 0)" filter="url(#a)"><path d="M12,290.786a12,12,0,0,1-12-12V20.993a12,12,0,0,1,12-12H209.347L219.839,0,230.33,8.994H427.676a12,12,0,0,1,12,12V278.787a12,12,0,0,1-12,12Z" transform="translate(36.32 177.13)" fill="#454545"/></g><g transform="matrix(1, 0, 0, 1, 0, 0)" filter="url(#c)"><rect width="440" height="122" rx="12" transform="translate(36 45)" fill="#4e4e4e"/></g><text transform="translate(256 127)" fill="#e6e6e6" font-size="53" font-family="Roboto-Regular, Roboto" letter-spacing="0.273em"><tspan x="-85.573" y="0">DATE</tspan></text><g transform="translate(59 217)" clip-path="url(#e)"><g transform="translate(-55 -204)"><path d="M0,0H46V46H0Z" transform="translate(55 204)" fill="#393939"/></g><g transform="translate(3 -204)"><path d="M0,0H46V46H0Z" transform="translate(55 204)" fill="#393939"/></g><g transform="translate(61 -204)"><path d="M0,0H46V46H0Z" transform="translate(55 204)" fill="#393939"/></g><g transform="translate(119 -204)"><path d="M0,0H46V46H0Z" transform="translate(55 204)" fill="#393939"/></g><g transform="translate(177 -204)"><path d="M0,0H46V46H0Z" transform="translate(55 204)" fill="#393939"/></g><g transform="translate(235 -204)"><path d="M0,0H46V46H0Z" transform="translate(55 204)" fill="#393939"/></g><g transform="translate(293 -204)"><path d="M0,0H46V46H0Z" transform="translate(55 204)" fill="#393939"/></g><g transform="translate(-55 -146)"><path d="M0,0H46V46H0Z" transform="translate(55 204)" fill="#393939"/></g><g transform="translate(3 -146)"><path d="M0,0H46V46H0Z" transform="translate(55 204)" fill="#393939"/></g><g transform="translate(61 -146)"><path d="M0,0H46V46H0Z" transform="translate(55 204)" fill="#393939"/></g><g transform="translate(119 -146)"><path d="M0,0H46V46H0Z" transform="translate(55 204)" fill="#393939"/></g><g transform="translate(177 -146)"><path d="M0,0H46V46H0Z" transform="translate(55 204)" fill="#393939"/></g><g transform="translate(235 -146)"><path d="M0,0H46V46H0Z" transform="translate(55 204)" fill="#393939"/></g><g transform="translate(293 -146)"><path d="M0,0H46V46H0Z" transform="translate(55 204)" fill="#393939"/></g><g transform="translate(-55 -88)"><path d="M0,0H46V46H0Z" transform="translate(55 204)" fill="#393939"/></g><g transform="translate(3 -88)"><path d="M0,0H46V46H0Z" transform="translate(55 204)" fill="#393939"/></g><g transform="translate(61 -88)"><path d="M0,0H46V46H0Z" transform="translate(55 204)" fill="#393939"/></g><g transform="translate(119 -88)"><path d="M0,0H46V46H0Z" transform="translate(55 204)" fill="#393939"/></g><g transform="translate(177 -88)"><path d="M0,0H46V46H0Z" transform="translate(55 204)" fill="#393939"/></g><g transform="translate(235 -88)"><path d="M0,0H46V46H0Z" transform="translate(55 204)" fill="#393939"/></g><g transform="translate(293 -88)"><path d="M0,0H46V46H0Z" transform="translate(55 204)" fill="#393939"/></g><g transform="translate(-55 -30)"><path d="M0,0H46V46H0Z" transform="translate(55 204)" fill="#393939"/></g><g transform="translate(3 -30)"><path d="M0,0H46V46H0Z" transform="translate(55 204)" fill="#393939"/></g><g transform="translate(61 -30)"><path d="M0,0H46V46H0Z" transform="translate(55 204)" fill="#393939"/></g><g transform="translate(119 -30)"><path d="M0,0H46V46H0Z" transform="translate(55 204)" fill="#393939"/></g><g transform="translate(177 -30)"><path d="M0,0H46V46H0Z" transform="translate(55 204)" fill="#393939"/></g><g transform="translate(235 -30)"><path d="M0,0H46V46H0Z" transform="translate(55 204)" fill="#393939"/></g><g transform="translate(293 -30)"><path d="M0,0H46V46H0Z" transform="translate(55 204)" fill="#393939"/></g></g><rect width="46" height="46" transform="translate(59 217)" fill="#fff" opacity="0.1"/><rect width="46" height="46" transform="translate(117 217)" fill="#fff" opacity="0.1"/><rect width="46" height="46" transform="translate(175 217)" fill="#fff" opacity="0.1"/><rect width="46" height="46" transform="translate(233 217)" fill="#fff" opacity="0.1"/><rect width="46" height="46" transform="translate(349 391)" fill="#fff" opacity="0.1"/><rect width="46" height="46" transform="translate(407 391)" fill="#fff" opacity="0.1"/><rect width="46" height="46" transform="translate(291 391)" fill="#fff" opacity="0.1"/><rect width="46" height="46" transform="translate(349 217)" fill="#5c88ff"/></g></svg>