<svg xmlns="http://www.w3.org/2000/svg" xmlns:xlink="http://www.w3.org/1999/xlink" width="512" height="512" viewBox="0 0 512 512"><defs><filter id="a" x="27.001" y="170.001" width="458.323" height="309.214" filterUnits="userSpaceOnUse"><feOffset dy="3" input="SourceAlpha"/><feGaussianBlur stdDeviation="3" result="b"/><feFlood flood-opacity="0.161"/><feComposite operator="in" in2="b"/><feComposite in="SourceGraphic"/></filter><filter id="c" x="27" y="39" width="458" height="140" filterUnits="userSpaceOnUse"><feOffset dy="3" input="SourceAlpha"/><feGaussianBlur stdDeviation="3" result="d"/><feFlood flood-opacity="0.161"/><feComposite operator="in" in2="d"/><feComposite in="SourceGraphic"/></filter><linearGradient id="e" x2="0.971" y2="1" gradientUnits="objectBoundingBox"><stop offset="0" stop-color="#5940d6"/><stop offset="1" stop-color="#a717bd"/></linearGradient><filter id="f" x="347" y="39" width="138" height="140" filterUnits="userSpaceOnUse"><feOffset dy="3" input="SourceAlpha"/><feGaussianBlur stdDeviation="3" result="g"/><feFlood flood-opacity="0.161"/><feComposite operator="in" in2="g"/><feComposite in="SourceGraphic"/></filter><filter id="h" x="247.162" y="170.001" width="238.163" height="309.213" filterUnits="userSpaceOnUse"><feOffset dy="3" input="SourceAlpha"/><feGaussianBlur stdDeviation="3" result="i"/><feFlood flood-opacity="0.161"/><feComposite operator="in" in2="i"/><feComposite in="SourceGraphic"/></filter><filter id="j" x="59" y="213" width="50" height="50" filterUnits="userSpaceOnUse"><feOffset dy="3" input="SourceAlpha"/><feGaussianBlur stdDeviation="3" result="k"/><feFlood flood-opacity="0.161"/><feComposite operator="in" in2="k"/><feComposite in="SourceGraphic"/></filter><filter id="l" x="122" y="351" width="50" height="51" filterUnits="userSpaceOnUse"><feOffset dy="3" input="SourceAlpha"/><feGaussianBlur stdDeviation="3" result="m"/><feFlood flood-opacity="0.161"/><feComposite operator="in" in2="m"/><feComposite in="SourceGraphic"/></filter><filter id="n" x="185" y="300" width="51" height="51" filterUnits="userSpaceOnUse"><feOffset dy="3" input="SourceAlpha"/><feGaussianBlur stdDeviation="3" result="o"/><feFlood flood-opacity="0.161"/><feComposite operator="in" in2="o"/><feComposite in="SourceGraphic"/></filter><clipPath id="q"><rect width="512" height="512"/></clipPath></defs><g id="p" clip-path="url(#q)"><g transform="matrix(1, 0, 0, 1, 0, 0)" filter="url(#a)"><path d="M12,291.215a12,12,0,0,1-12-12V21.007a12,12,0,0,1,12-12H209.655L220.163,0,230.67,9.007H428.324a12,12,0,0,1,12,12V279.214a12,12,0,0,1-12,12Z" transform="translate(36 176)" fill="#454545"/></g><g transform="matrix(1, 0, 0, 1, 0, 0)" filter="url(#c)"><rect width="440" height="122" rx="12" transform="translate(36 45)" fill="#4e4e4e"/></g><text transform="translate(200 127)" fill="#e6e6e6" font-size="53" font-family="Roboto-Regular, Roboto" letter-spacing="0.273em"><tspan x="-112.359" y="0">COLOR</tspan></text><g transform="matrix(1, 0, 0, 1, 0, 0)" filter="url(#f)"><path d="M0,0H108a12,12,0,0,1,12,12v98a12,12,0,0,1-12,12H0a0,0,0,0,1,0,0V0A0,0,0,0,1,0,0Z" transform="translate(356 45)" fill="url(#e)"/></g><g transform="matrix(1, 0, 0, 1, 0, 0)" filter="url(#h)"><path d="M0,291.214V0H0L10.508,9.007H208.161a12,12,0,0,1,12,12V279.214a12,12,0,0,1-12,12Z" transform="translate(256.16 176)" fill="#5c88ff"/></g><g transform="translate(67.786 211.6)"><rect width="13" height="221" rx="6" transform="translate(10.214 0.4)" fill="#4e4e4e"/><g transform="matrix(1, 0, 0, 1, -67.79, -211.6)" filter="url(#j)"><circle cx="16" cy="16" r="16" transform="translate(68 219)" fill="#5c88ff"/></g></g><g transform="translate(131.357 211.6)"><rect width="11" height="221" rx="5.5" transform="translate(10.643 0.4)" fill="#4e4e4e"/><g transform="matrix(1, 0, 0, 1, -131.36, -211.6)" filter="url(#l)"><ellipse cx="16" cy="16.5" rx="16" ry="16.5" transform="translate(131 357)" fill="#5c88ff"/></g></g><g transform="translate(193.656 211.6)"><rect width="13" height="221" rx="6" transform="translate(10.344 0.4)" fill="#4e4e4e"/><g transform="matrix(1, 0, 0, 1, -193.66, -211.6)" filter="url(#n)"><circle cx="16.5" cy="16.5" r="16.5" transform="translate(194 306)" fill="#5c88ff"/></g></g></g></svg>