<svg xmlns="http://www.w3.org/2000/svg" xmlns:xlink="http://www.w3.org/1999/xlink" width="512" height="512" viewBox="0 0 512 512"><defs><filter id="a" x="27.325" y="171.131" width="457.675" height="308.786" filterUnits="userSpaceOnUse"><feOffset dy="3" input="SourceAlpha"/><feGaussianBlur stdDeviation="3" result="b"/><feFlood flood-opacity="0.161"/><feComposite operator="in" in2="b"/><feComposite in="SourceGraphic"/></filter><filter id="c" x="27" y="39" width="458" height="140" filterUnits="userSpaceOnUse"><feOffset dy="3" input="SourceAlpha"/><feGaussianBlur stdDeviation="3" result="d"/><feFlood flood-opacity="0.161"/><feComposite operator="in" in2="d"/><feComposite in="SourceGraphic"/></filter><clipPath id="f"><rect width="512" height="512"/></clipPath></defs><g id="e" clip-path="url(#f)"><g transform="matrix(1, 0, 0, 1, 0, 0)" filter="url(#a)"><path d="M12,290.786a12,12,0,0,1-12-12V20.993a12,12,0,0,1,12-12H209.347L219.839,0,230.33,8.994H427.676a12,12,0,0,1,12,12V278.787a12,12,0,0,1-12,12Z" transform="translate(36.32 177.13)" fill="#454545"/></g><g transform="matrix(1, 0, 0, 1, 0, 0)" filter="url(#c)"><rect width="440" height="122" rx="12" transform="translate(36 45)" fill="#4e4e4e"/></g><text transform="translate(256 127)" fill="#e6e6e6" font-size="53" font-family="Roboto-Regular, Roboto" letter-spacing="0.273em"><tspan x="-82.92" y="0">TIME</tspan></text><line y1="37.773" x2="37.773" transform="translate(256.429 284.798)" fill="none" stroke="#5c88ff" stroke-linecap="round" stroke-width="12"/><ellipse cx="15.5" cy="15" rx="15.5" ry="15" transform="translate(333 308)" fill="#595959"/><ellipse cx="15" cy="15.5" rx="15" ry="15.5" transform="translate(241 400)" fill="#595959"/><ellipse cx="15.5" cy="15" rx="15.5" ry="15" transform="translate(148 308)" fill="#595959"/><ellipse cx="15" cy="15.5" rx="15" ry="15.5" transform="translate(241 215)" fill="#595959"/><circle cx="15.453" cy="15.453" r="15.453" transform="translate(321.56 366.707) rotate(45)" fill="#595959"/><circle cx="15.453" cy="15.453" r="15.453" transform="translate(190.44 366.707) rotate(45)" fill="#595959"/><circle cx="15.453" cy="15.453" r="15.453" transform="translate(190.44 235.587) rotate(45)" fill="#595959"/><circle cx="15.453" cy="15.453" r="15.453" transform="translate(321.56 235.587) rotate(45)" fill="#5c88ff"/></g></svg>