<svg xmlns="http://www.w3.org/2000/svg" xmlns:xlink="http://www.w3.org/1999/xlink" width="512" height="512" viewBox="0 0 512 512"><defs><filter id="a" x="215.621" y="92.959" width="81.116" height="81.116" filterUnits="userSpaceOnUse"><feOffset dy="3" input="SourceAlpha"/><feGaussianBlur stdDeviation="3" result="b"/><feFlood flood-opacity="0.161"/><feComposite operator="in" in2="b"/><feComposite in="SourceGraphic"/></filter><filter id="c" x="120.433" y="218.192" width="83.641" height="81.116" filterUnits="userSpaceOnUse"><feOffset dy="3" input="SourceAlpha"/><feGaussianBlur stdDeviation="3" result="d"/><feFlood flood-opacity="0.161"/><feComposite operator="in" in2="d"/><feComposite in="SourceGraphic"/></filter><filter id="e" x="308.433" y="218.192" width="83.641" height="81.116" filterUnits="userSpaceOnUse"><feOffset dy="3" input="SourceAlpha"/><feGaussianBlur stdDeviation="3" result="f"/><feFlood flood-opacity="0.161"/><feComposite operator="in" in2="f"/><feComposite in="SourceGraphic"/></filter><filter id="g" x="214.419" y="341.9" width="83.641" height="83.641" filterUnits="userSpaceOnUse"><feOffset dy="3" input="SourceAlpha"/><feGaussianBlur stdDeviation="3" result="h"/><feFlood flood-opacity="0.161"/><feComposite operator="in" in2="h"/><feComposite in="SourceGraphic"/></filter><filter id="i" x="45.419" y="341.9" width="83.641" height="83.641" filterUnits="userSpaceOnUse"><feOffset dy="3" input="SourceAlpha"/><feGaussianBlur stdDeviation="3" result="j"/><feFlood flood-opacity="0.161"/><feComposite operator="in" in2="j"/><feComposite in="SourceGraphic"/></filter><filter id="k" x="383.419" y="341.9" width="83.641" height="83.641" filterUnits="userSpaceOnUse"><feOffset dy="3" input="SourceAlpha"/><feGaussianBlur stdDeviation="3" result="l"/><feFlood flood-opacity="0.161"/><feComposite operator="in" in2="l"/><feComposite in="SourceGraphic"/></filter><clipPath id="n"><rect width="512" height="512"/></clipPath></defs><g id="m" clip-path="url(#n)"><g transform="translate(475.885 97.959) rotate(90)"><rect width="25.247" height="439.29" rx="6" transform="translate(20.197 0)" fill="#4e4e4e"/><g transform="matrix(0, -1, 1, 0, -97.96, 475.88)" filter="url(#a)"><ellipse cx="31.558" cy="31.558" rx="31.558" ry="31.558" transform="translate(287.74 98.96) rotate(90)" fill="#5c88ff"/></g></g><g transform="translate(475.885 224.192) rotate(90)"><rect width="22.722" height="439.29" rx="6" transform="translate(20.197 0)" fill="#4e4e4e"/><rect width="22.722" height="187.29" rx="6" transform="translate(20.197 126)" fill="#5c88ff" opacity="0.74"/><g transform="matrix(0, -1, 1, 0, -224.19, 475.88)" filter="url(#c)"><ellipse cx="31.558" cy="32.82" rx="31.558" ry="32.82" transform="translate(195.07 224.19) rotate(90)" fill="#5c88ff"/></g><g transform="matrix(0, -1, 1, 0, -224.19, 475.88)" filter="url(#e)"><ellipse cx="31.558" cy="32.82" rx="31.558" ry="32.82" transform="translate(383.07 224.19) rotate(90)" fill="#5c88ff"/></g></g><g transform="translate(475.885 347.9) rotate(90)"><rect width="25.247" height="439.29" rx="6" transform="translate(20.197 0)" fill="#4e4e4e"/><g transform="matrix(0, -1, 1, 0, -347.9, 475.88)" filter="url(#g)"><ellipse cx="32.82" cy="32.82" rx="32.82" ry="32.82" transform="translate(289.06 347.9) rotate(90)" fill="#5c88ff"/></g><g transform="matrix(0, -1, 1, 0, -347.9, 475.88)" filter="url(#i)"><ellipse cx="32.82" cy="32.82" rx="32.82" ry="32.82" transform="translate(120.06 347.9) rotate(90)" fill="#5c88ff"/></g><g transform="matrix(0, -1, 1, 0, -347.9, 475.88)" filter="url(#k)"><ellipse cx="32.82" cy="32.82" rx="32.82" ry="32.82" transform="translate(458.06 347.9) rotate(90)" fill="#5c88ff"/></g></g></g></svg>