<svg xmlns="http://www.w3.org/2000/svg" xmlns:xlink="http://www.w3.org/1999/xlink" width="512" height="512" viewBox="0 0 512 512"><defs><filter id="a" x="27" y="63" width="458" height="392" filterUnits="userSpaceOnUse"><feOffset dy="3" input="SourceAlpha"/><feGaussianBlur stdDeviation="3" result="b"/><feFlood flood-opacity="0.161"/><feComposite operator="in" in2="b"/><feComposite in="SourceGraphic"/></filter><filter id="c" x="27" y="63" width="458" height="101" filterUnits="userSpaceOnUse"><feOffset dy="3" input="SourceAlpha"/><feGaussianBlur stdDeviation="3" result="d"/><feFlood flood-opacity="0.161"/><feComposite operator="in" in2="d"/><feComposite in="SourceGraphic"/></filter><clipPath id="f"><rect width="512" height="512"/></clipPath></defs><g id="e" clip-path="url(#f)"><g transform="matrix(1, 0, 0, 1, 0, 0)" filter="url(#a)"><rect width="440" height="374" rx="12" transform="translate(36 69)" fill="#454545"/></g><path d="M12,0H209a0,0,0,0,1,0,0V40a12,12,0,0,1-12,12H0a0,0,0,0,1,0,0V12A12,12,0,0,1,12,0Z" transform="translate(267 391)" fill="#5c88ff"/><path d="M0,0H197a12,12,0,0,1,12,12V52a0,0,0,0,1,0,0H12A12,12,0,0,1,0,40V0A0,0,0,0,1,0,0Z" transform="translate(36 391)" fill="#ff5c5c"/><text transform="translate(372 430)" fill="#444" font-size="36" font-family="Roboto-Regular, Roboto" letter-spacing="0.273em"><tspan x="-41.548" y="0">YES</tspan></text><text transform="translate(141 430)" fill="#444" font-size="36" font-family="Roboto-Regular, Roboto" letter-spacing="0.273em"><tspan x="-30.121" y="0">NO</tspan></text><g transform="matrix(1, 0, 0, 1, 0, 0)" filter="url(#c)"><path d="M12,0H428a12,12,0,0,1,12,12V83a0,0,0,0,1,0,0H0a0,0,0,0,1,0,0V12A12,12,0,0,1,12,0Z" transform="translate(36 69)" fill="#444"/></g><text transform="translate(256 128)" fill="#5c88ff" font-size="48" font-family="Roboto-Regular, Roboto" letter-spacing="0.273em"><tspan x="-107.724" y="0">MODAL</tspan></text></g></svg>