<svg xmlns="http://www.w3.org/2000/svg" xmlns:xlink="http://www.w3.org/1999/xlink" width="512" height="512" viewBox="0 0 512 512"><defs><filter id="a" x="17" y="200" width="118" height="118" filterUnits="userSpaceOnUse"><feOffset dy="3" input="SourceAlpha"/><feGaussianBlur stdDeviation="3" result="b"/><feFlood flood-opacity="0.161"/><feComposite operator="in" in2="b"/><feComposite in="SourceGraphic"/></filter><filter id="c" x="137" y="200" width="118" height="118" filterUnits="userSpaceOnUse"><feOffset dy="3" input="SourceAlpha"/><feGaussianBlur stdDeviation="3" result="d"/><feFlood flood-opacity="0.161"/><feComposite operator="in" in2="d"/><feComposite in="SourceGraphic"/></filter><filter id="e" x="257" y="200" width="118" height="118" filterUnits="userSpaceOnUse"><feOffset dy="3" input="SourceAlpha"/><feGaussianBlur stdDeviation="3" result="f"/><feFlood flood-opacity="0.161"/><feComposite operator="in" in2="f"/><feComposite in="SourceGraphic"/></filter><filter id="g" x="377" y="200" width="118" height="118" filterUnits="userSpaceOnUse"><feOffset dy="3" input="SourceAlpha"/><feGaussianBlur stdDeviation="3" result="h"/><feFlood flood-opacity="0.161"/><feComposite operator="in" in2="h"/><feComposite in="SourceGraphic"/></filter><clipPath id="j"><rect width="512" height="512"/></clipPath></defs><g id="i" clip-path="url(#j)"><g transform="matrix(1, 0, 0, 1, 0, 0)" filter="url(#a)"><rect width="100" height="100" rx="12" transform="translate(26 306) rotate(-90)" fill="#4e4e4e"/></g><text transform="translate(76 269)" fill="#fff" font-size="36" font-family="Roboto-Regular, Roboto" letter-spacing="0.273em"><tspan x="-10.107" y="0">1</tspan></text><g transform="matrix(1, 0, 0, 1, 0, 0)" filter="url(#c)"><rect width="100" height="100" rx="12" transform="translate(146 306) rotate(-90)" fill="#4e4e4e"/></g><text transform="translate(196 269)" fill="#fff" font-size="36" font-family="Roboto-Regular, Roboto" letter-spacing="0.273em"><tspan x="-10.107" y="0">2</tspan></text><g transform="matrix(1, 0, 0, 1, 0, 0)" filter="url(#e)"><rect width="100" height="100" rx="12" transform="translate(266 306) rotate(-90)" fill="#4e4e4e"/></g><text transform="translate(316 269)" fill="#fff" font-size="36" font-family="Roboto-Regular, Roboto" letter-spacing="0.273em"><tspan x="-24.04" y="0">...</tspan></text><g transform="matrix(1, 0, 0, 1, 0, 0)" filter="url(#g)"><rect width="100" height="100" rx="12" transform="translate(386 306) rotate(-90)" fill="#4e4e4e"/></g><text transform="translate(436 269)" fill="#fff" font-size="36" font-family="Roboto-Regular, Roboto" letter-spacing="0.273em"><tspan x="-25.129" y="0">10</tspan></text></g></svg>