<svg xmlns="http://www.w3.org/2000/svg" xmlns:xlink="http://www.w3.org/1999/xlink" width="512" height="512" viewBox="0 0 512 512"><defs><filter id="a" x="28" y="156" width="457" height="320" filterUnits="userSpaceOnUse"><feOffset dy="3" input="SourceAlpha"/><feGaussianBlur stdDeviation="3" result="b"/><feFlood flood-opacity="0.161"/><feComposite operator="in" in2="b"/><feComposite in="SourceGraphic"/></filter><filter id="c" x="83" y="42" width="346" height="118" filterUnits="userSpaceOnUse"><feOffset dy="3" input="SourceAlpha"/><feGaussianBlur stdDeviation="3" result="d"/><feFlood flood-opacity="0.161"/><feComposite operator="in" in2="d"/><feComposite in="SourceGraphic"/></filter><clipPath id="f"><rect width="512" height="512"/></clipPath></defs><g id="e" clip-path="url(#f)"><g transform="matrix(1, 0, 0, 1, 0, 0)" filter="url(#a)"><path d="M12,290A12,12,0,0,1,0,278V20.939a12,12,0,0,1,12-12H195.046L219.5-12,243.956,8.94H427a12,12,0,0,1,12,12V278a12,12,0,0,1-12,12Z" transform="translate(37 174)" fill="#454545"/></g><g transform="matrix(1, 0, 0, 1, 0, 0)" filter="url(#c)"><rect width="100" height="328" rx="12" transform="translate(92 148) rotate(-90)" fill="#4e4e4e"/></g><text transform="translate(256 111)" fill="#fff" font-size="36" font-family="Roboto-Regular, Roboto" letter-spacing="0.273em"><tspan x="-109.517" y="0">POPOVER</tspan></text></g></svg>