<svg xmlns="http://www.w3.org/2000/svg" xmlns:xlink="http://www.w3.org/1999/xlink" width="512" height="512" viewBox="0 0 512 512"><defs><filter id="a" x="27" y="73" width="458" height="373" filterUnits="userSpaceOnUse"><feOffset dy="3" input="SourceAlpha"/><feGaussianBlur stdDeviation="3" result="b"/><feFlood flood-opacity="0.161"/><feComposite operator="in" in2="b"/><feComposite in="SourceGraphic"/></filter><filter id="c" x="48" y="125" width="191" height="84" filterUnits="userSpaceOnUse"><feOffset dy="3" input="SourceAlpha"/><feGaussianBlur stdDeviation="3" result="d"/><feFlood flood-opacity="0.161"/><feComposite operator="in" in2="d"/><feComposite in="SourceGraphic"/></filter><filter id="e" x="27" y="217" width="458" height="84" filterUnits="userSpaceOnUse"><feOffset dy="3" input="SourceAlpha"/><feGaussianBlur stdDeviation="3" result="f"/><feFlood flood-opacity="0.161"/><feComposite operator="in" in2="f"/><feComposite in="SourceGraphic"/></filter><filter id="g" x="27" y="310" width="458" height="84" filterUnits="userSpaceOnUse"><feOffset dy="3" input="SourceAlpha"/><feGaussianBlur stdDeviation="3" result="h"/><feFlood flood-opacity="0.161"/><feComposite operator="in" in2="h"/><feComposite in="SourceGraphic"/></filter><filter id="i" x="269" y="125" width="191" height="84" filterUnits="userSpaceOnUse"><feOffset dy="3" input="SourceAlpha"/><feGaussianBlur stdDeviation="3" result="j"/><feFlood flood-opacity="0.161"/><feComposite operator="in" in2="j"/><feComposite in="SourceGraphic"/></filter><clipPath id="l"><rect width="512" height="512"/></clipPath></defs><g id="k" clip-path="url(#l)"><g transform="matrix(1, 0, 0, 1, 0, 0)" filter="url(#a)"><rect width="355" height="440" rx="12" transform="translate(36 434) rotate(-90)" fill="#4e4e4e"/></g><g transform="matrix(1, 0, 0, 1, 0, 0)" filter="url(#c)"><rect width="66" height="173" transform="translate(57 197) rotate(-90)" fill="#454545"/></g><text transform="translate(78 177)" fill="#fff" font-size="36" font-family="Roboto-Regular, Roboto" letter-spacing="0.273em"><tspan x="0" y="0">NAME</tspan></text><g transform="matrix(1, 0, 0, 1, 0, 0)" filter="url(#e)"><rect width="66" height="440" transform="translate(36 289) rotate(-90)" fill="#454545"/></g><text transform="translate(78 269)" fill="#fff" font-size="36" font-family="Roboto-Regular, Roboto" letter-spacing="0.273em"><tspan x="0" y="0">A</tspan></text><g transform="matrix(1, 0, 0, 1, 0, 0)" filter="url(#g)"><rect width="66" height="440" transform="translate(36 382) rotate(-90)" fill="#454545"/></g><text transform="translate(78 362)" fill="#fff" font-size="36" font-family="Roboto-Regular, Roboto" letter-spacing="0.273em"><tspan x="0" y="0">A</tspan></text><g transform="matrix(1, 0, 0, 1, 0, 0)" filter="url(#i)"><rect width="66" height="173" transform="translate(278 197) rotate(-90)" fill="#454545"/></g><text transform="translate(321 177)" fill="#fff" font-size="36" font-family="Roboto-Regular, Roboto" letter-spacing="0.273em"><tspan x="0" y="0">AGE</tspan></text><text transform="translate(321 362)" fill="#fff" font-size="36" font-family="Roboto-Regular, Roboto" letter-spacing="0.273em"><tspan x="0" y="0">2</tspan></text><text transform="translate(321 269)" fill="#fff" font-size="36" font-family="Roboto-Regular, Roboto" letter-spacing="0.273em"><tspan x="0" y="0">1</tspan></text></g></svg>