<svg xmlns="http://www.w3.org/2000/svg" xmlns:xlink="http://www.w3.org/1999/xlink" width="512" height="512" viewBox="0 0 512 512"><defs><filter id="a" x="27" y="73" width="458" height="373" filterUnits="userSpaceOnUse"><feOffset dy="3" input="SourceAlpha"/><feGaussianBlur stdDeviation="3" result="b"/><feFlood flood-opacity="0.161"/><feComposite operator="in" in2="b"/><feComposite in="SourceGraphic"/></filter><linearGradient id="c" x2="0.971" y2="1" gradientUnits="objectBoundingBox"><stop offset="0" stop-color="#40d6d6"/><stop offset="1" stop-color="#173ebd"/></linearGradient><filter id="d" x="53" y="59" width="406" height="402" filterUnits="userSpaceOnUse"><feOffset dy="3" input="SourceAlpha"/><feGaussianBlur stdDeviation="3" result="e"/><feFlood flood-opacity="0.161"/><feComposite operator="in" in2="e"/><feComposite in="SourceGraphic"/></filter><clipPath id="f"><rect width="179" height="29" fill="none"/></clipPath><filter id="g" x="158" y="389" width="47" height="47" filterUnits="userSpaceOnUse"><feOffset dy="3" input="SourceAlpha"/><feGaussianBlur stdDeviation="3" result="h"/><feFlood flood-opacity="0.161"/><feComposite operator="in" in2="h"/><feComposite in="SourceGraphic"/></filter><filter id="i" x="207" y="389" width="47" height="47" filterUnits="userSpaceOnUse"><feOffset dy="3" input="SourceAlpha"/><feGaussianBlur stdDeviation="3" result="j"/><feFlood flood-opacity="0.161"/><feComposite operator="in" in2="j"/><feComposite in="SourceGraphic"/></filter><filter id="k" x="256" y="389" width="47" height="47" filterUnits="userSpaceOnUse"><feOffset dy="3" input="SourceAlpha"/><feGaussianBlur stdDeviation="3" result="l"/><feFlood flood-opacity="0.161"/><feComposite operator="in" in2="l"/><feComposite in="SourceGraphic"/></filter><filter id="m" x="305" y="389" width="47" height="47" filterUnits="userSpaceOnUse"><feOffset dy="3" input="SourceAlpha"/><feGaussianBlur stdDeviation="3" result="n"/><feFlood flood-opacity="0.161"/><feComposite operator="in" in2="n"/><feComposite in="SourceGraphic"/></filter><clipPath id="p"><rect width="512" height="512"/></clipPath></defs><g id="o" clip-path="url(#p)"><g transform="matrix(1, 0, 0, 1, 0, 0)" filter="url(#a)"><rect width="355" height="440" rx="12" transform="translate(36 434) rotate(-90)" fill="#4e4e4e"/></g><g transform="matrix(1, 0, 0, 1, 0, 0)" filter="url(#d)"><rect width="388" height="384" rx="12" transform="translate(62 65)" fill="url(#c)"/></g><g transform="translate(167 395)" clip-path="url(#f)"><g transform="translate(-95 -279)"><g transform="matrix(1, 0, 0, 1, -72, -116)" filter="url(#g)"><circle cx="14.5" cy="14.5" r="14.5" transform="translate(167 395)" fill="#fff"/></g></g><g transform="translate(-46 -279)"><g transform="matrix(1, 0, 0, 1, -121, -116)" filter="url(#i)"><circle cx="14.5" cy="14.5" r="14.5" transform="translate(216 395)" fill="#fff"/></g></g><g transform="translate(3 -279)"><g transform="matrix(1, 0, 0, 1, -170, -116)" filter="url(#k)"><circle cx="14.5" cy="14.5" r="14.5" transform="translate(265 395)" fill="#fff"/></g></g><g transform="translate(52 -279)"><g transform="matrix(1, 0, 0, 1, -219, -116)" filter="url(#m)"><circle cx="14.5" cy="14.5" r="14.5" transform="translate(314 395)" fill="#fff"/></g></g></g><circle cx="9.5" cy="9.5" r="9.5" transform="translate(172 400)" fill="#6f94fb"/><g transform="translate(430.312 201.954)"><line x2="38.511" y2="54.106" transform="translate(0 0)" fill="none" stroke="#fff" stroke-linecap="round" stroke-width="3"/><line y1="54.106" x2="38.511" transform="translate(0 54.106)" fill="none" stroke="#fff" stroke-linecap="round" stroke-width="3"/></g><g transform="translate(42.312 201.954)"><line x1="38.511" y2="54.106" transform="translate(0 0)" fill="none" stroke="#fff" stroke-linecap="round" stroke-width="3"/><line x1="38.511" y1="54.106" transform="translate(0 54.106)" fill="none" stroke="#fff" stroke-linecap="round" stroke-width="3"/></g></g></svg>