<svg xmlns="http://www.w3.org/2000/svg" xmlns:xlink="http://www.w3.org/1999/xlink" width="512" height="512" viewBox="0 0 512 512"><defs><filter id="a" x="27" y="46" width="458" height="145" filterUnits="userSpaceOnUse"><feOffset dy="3" input="SourceAlpha"/><feGaussianBlur stdDeviation="3" result="b"/><feFlood flood-opacity="0.161"/><feComposite operator="in" in2="b"/><feComposite in="SourceGraphic"/></filter><filter id="c" x="27" y="187" width="458" height="145" filterUnits="userSpaceOnUse"><feOffset dy="3" input="SourceAlpha"/><feGaussianBlur stdDeviation="3" result="d"/><feFlood flood-opacity="0.161"/><feComposite operator="in" in2="d"/><feComposite in="SourceGraphic"/></filter><filter id="e" x="27" y="328" width="458" height="145" filterUnits="userSpaceOnUse"><feOffset dy="3" input="SourceAlpha"/><feGaussianBlur stdDeviation="3" result="f"/><feFlood flood-opacity="0.161"/><feComposite operator="in" in2="f"/><feComposite in="SourceGraphic"/></filter><clipPath id="h"><rect width="512" height="512"/></clipPath></defs><g id="g" clip-path="url(#h)"><g transform="matrix(1, 0, 0, 1, 0, 0)" filter="url(#a)"><rect width="127" height="440" rx="12" transform="translate(36 179) rotate(-90)" fill="#4e4e4e"/></g><text transform="translate(66 133)" fill="#6f94fb" font-size="48" font-family="Roboto-Light, Roboto" font-weight="300" letter-spacing="0.273em"><tspan x="0" y="0">TOAST</tspan></text><g transform="matrix(1, 0, 0, 1, 0, 0)" filter="url(#c)"><rect width="127" height="440" rx="12" transform="translate(36 320) rotate(-90)" fill="#4e4e4e" opacity="0.51"/></g><text transform="translate(66 274)" fill="#6f94fb" font-size="48" font-family="Roboto-Light, Roboto" font-weight="300" letter-spacing="0.273em" opacity="0.51"><tspan x="0" y="0">TOAST</tspan></text><g transform="matrix(1, 0, 0, 1, 0, 0)" filter="url(#e)"><rect width="127" height="440" rx="12" transform="translate(36 461) rotate(-90)" fill="#4e4e4e" opacity="0.06"/></g><text transform="translate(66 415)" fill="#6f94fb" font-size="48" font-family="Roboto-Light, Roboto" font-weight="300" letter-spacing="0.273em" opacity="0.06"><tspan x="0" y="0">TOAST</tspan></text></g></svg>