<svg xmlns="http://www.w3.org/2000/svg" xmlns:xlink="http://www.w3.org/1999/xlink" width="512" height="512" viewBox="0 0 512 512"><defs><filter id="a" x="27" y="25" width="458" height="140" filterUnits="userSpaceOnUse"><feOffset dy="3" input="SourceAlpha"/><feGaussianBlur stdDeviation="3" result="b"/><feFlood flood-opacity="0.161"/><feComposite operator="in" in2="b"/><feComposite in="SourceGraphic"/></filter><filter id="c" x="27" y="190" width="458" height="140" filterUnits="userSpaceOnUse"><feOffset dy="3" input="SourceAlpha"/><feGaussianBlur stdDeviation="3" result="d"/><feFlood flood-opacity="0.161"/><feComposite operator="in" in2="d"/><feComposite in="SourceGraphic"/></filter><filter id="e" x="27" y="355" width="458" height="140" filterUnits="userSpaceOnUse"><feOffset dy="3" input="SourceAlpha"/><feGaussianBlur stdDeviation="3" result="f"/><feFlood flood-opacity="0.161"/><feComposite operator="in" in2="f"/><feComposite in="SourceGraphic"/></filter><clipPath id="h"><rect width="512" height="512"/></clipPath></defs><g id="g" clip-path="url(#h)"><g transform="matrix(1, 0, 0, 1, 0, 0)" filter="url(#a)"><path d="M122,0H440a0,0,0,0,1,0,0V122a0,0,0,0,1,0,0H0a0,0,0,0,1,0,0v0A122,122,0,0,1,122,0Z" transform="translate(36 31)" fill="#5c88ff"/></g><g transform="matrix(1, 0, 0, 1, 0, 0)" filter="url(#c)"><path d="M0,0H318A122,122,0,0,1,440,122v0a0,0,0,0,1,0,0H0a0,0,0,0,1,0,0V0A0,0,0,0,1,0,0Z" transform="translate(36 196)" fill="#8dc63f"/></g><g transform="matrix(1, 0, 0, 1, 0, 0)" filter="url(#e)"><rect width="440" height="122" rx="61" transform="translate(36 361)" fill="#ff5cd9"/></g></g></svg>