<svg xmlns="http://www.w3.org/2000/svg" xmlns:xlink="http://www.w3.org/1999/xlink" width="512" height="512" viewBox="0 0 512 512"><defs><filter id="a" x="107" y="110" width="298" height="298" filterUnits="userSpaceOnUse"><feOffset dy="3" input="SourceAlpha"/><feGaussianBlur stdDeviation="3" result="b"/><feFlood flood-opacity="0.161"/><feComposite operator="in" in2="b"/><feComposite in="SourceGraphic"/></filter><clipPath id="d"><rect width="512" height="512"/></clipPath></defs><g id="c" clip-path="url(#d)"><g transform="matrix(1, 0, 0, 1, 0, 0)" filter="url(#a)"><rect width="280" height="280" rx="140" transform="translate(116 116)" fill="#4e4e4e"/></g><g transform="translate(145 145)" fill="none"><path d="M111,0A111,111,0,1,1,0,111,111,111,0,0,1,111,0Z" stroke="none"/><path d="M 111 12 C 56.41120910644531 12 12 56.41120910644531 12 111 C 12 165.5887908935547 56.41120910644531 210 111 210 C 165.5887908935547 210 210 165.5887908935547 210 111 C 210 56.41120910644531 165.5887908935547 12 111 12 M 111 0 C 172.3035888671875 0 222 49.69638061523438 222 111 C 222 172.3035888671875 172.3035888671875 222 111 222 C 49.69638061523438 222 0 172.3035888671875 0 111 C 0 49.69638061523438 49.69638061523438 0 111 0 Z" stroke="none" fill="#5c88ff"/></g><path d="M128.339,0c70.88,0,128.339,92.979,128.339,92.979H0S57.459,0,128.339,0Z" transform="translate(127.661 116)" fill="#4e4e4e"/><line y2="117" transform="translate(256.5 162.5)" fill="none" stroke="#5c88ff" stroke-width="12"/></g></svg>