<svg xmlns="http://www.w3.org/2000/svg" xmlns:xlink="http://www.w3.org/1999/xlink" width="512" height="512" viewBox="0 0 512 512"><defs><filter id="a" x="27" y="334" width="458" height="140" filterUnits="userSpaceOnUse"><feOffset dy="3" input="SourceAlpha"/><feGaussianBlur stdDeviation="3" result="b"/><feFlood flood-opacity="0.161"/><feComposite operator="in" in2="b"/><feComposite in="SourceGraphic"/></filter><filter id="c" x="27" y="45" width="458" height="140" filterUnits="userSpaceOnUse"><feOffset dy="3" input="SourceAlpha"/><feGaussianBlur stdDeviation="3" result="d"/><feFlood flood-opacity="0.161"/><feComposite operator="in" in2="d"/><feComposite in="SourceGraphic"/></filter><filter id="e" x="27" y="334" width="458" height="140" filterUnits="userSpaceOnUse"><feOffset dy="3" input="SourceAlpha"/><feGaussianBlur stdDeviation="3" result="f"/><feFlood flood-opacity="0.161"/><feComposite operator="in" in2="f"/><feComposite in="SourceGraphic"/></filter><clipPath id="h"><rect width="512" height="512"/></clipPath></defs><g id="g" clip-path="url(#h)"><g transform="matrix(1, 0, 0, 1, 0, 0)" filter="url(#a)"><path d="M45,0H428a12,12,0,0,1,12,12v0A110,110,0,0,1,330,122H12A12,12,0,0,1,0,110V45A45,45,0,0,1,45,0Z" transform="translate(36 340)" fill="#4e4e4e"/></g><g transform="matrix(1, 0, 0, 1, 0, 0)" filter="url(#c)"><rect width="440" height="122" rx="12" transform="translate(36 51)" fill="#4e4e4e"/></g><text transform="translate(253 132)" fill="#e6e6e6" font-size="53" font-family="Roboto-Regular, Roboto" letter-spacing="0.273em"><tspan x="-145.823" y="0">INSTALL</tspan></text><g transform="matrix(1, 0, 0, 1, 0, 0)" filter="url(#e)"><path d="M110,0H428a12,12,0,0,1,12,12V56a66,66,0,0,1-66,66H12A12,12,0,0,1,0,110v0A110,110,0,0,1,110,0Z" transform="translate(36 340)" fill="#5c88ff"/></g><text transform="translate(253 421)" fill="#4e4e4e" font-size="53" font-family="Roboto-Regular, Roboto" letter-spacing="0.273em"><tspan x="-116.9" y="0">THEME</tspan></text><g transform="translate(-3 -24)"><line y2="98" transform="translate(256.5 227.5)" fill="none" stroke="#707070" stroke-linecap="round" stroke-width="12"/><line x2="48" y2="48" transform="translate(208.5 283.5)" fill="none" stroke="#707070" stroke-linecap="round" stroke-width="12"/><line x1="48" y2="48" transform="translate(256.5 283.5)" fill="none" stroke="#707070" stroke-linecap="round" stroke-width="12"/></g></g></svg>